<svg xmlns="http://www.w3.org/2000/svg" width="900" height="900" viewBox="0 0 900 900" role="img" aria-labelledby="title desc">
  <title id="title">Current simulated accounting</title>
  <desc id="desc">A vertical diagram of the simulated fund accounting: quarterly NAV, management fee, investor high-water mark, 20 percent performance pool, strategy-professor payout, and safety-net payout.</desc>
  <defs>
    <marker id="arrow" markerWidth="14" markerHeight="14" refX="11" refY="7" orient="auto">
      <path d="M2,2 L12,7 L2,12" fill="none" stroke="#111827" stroke-width="2.6" stroke-linecap="round" stroke-linejoin="round"/>
    </marker>
    <filter id="shadow" x="-10%" y="-10%" width="120%" height="120%">
      <feDropShadow dx="0" dy="4" stdDeviation="5" flood-color="#111827" flood-opacity="0.13"/>
    </filter>
    <style>
      .bg { fill: #fbfcfd; }
      .title { font: 700 30px Arial, Helvetica, sans-serif; fill: #111827; }
      .subtitle { font: 400 16px Arial, Helvetica, sans-serif; fill: #374151; }
      .card { stroke: #1f2937; stroke-width: 2.3; filter: url(#shadow); }
      .blue { fill: #e8f2ff; }
      .green { fill: #eaf8ef; }
      .yellow { fill: #fff4d7; }
      .red { fill: #ffecec; }
      .violet { fill: #f1efff; }
      .label { font: 700 21px Arial, Helvetica, sans-serif; fill: #111827; }
      .body { font: 400 15px Arial, Helvetica, sans-serif; fill: #374151; }
      .metric { font: 700 31px Arial, Helvetica, sans-serif; fill: #111827; }
      .small { font: 400 13px Arial, Helvetica, sans-serif; fill: #4b5563; }
      .arrow { fill: none; stroke: #111827; stroke-width: 2.6; stroke-linecap: round; stroke-linejoin: round; marker-end: url(#arrow); }
      .bar-bg { fill: #e5e7eb; }
      .bar-a { fill: #2563eb; }
      .bar-b { fill: #0f766e; }
      .bar-c { fill: #dc2626; }
    </style>
  </defs>

  <rect class="bg" width="900" height="900"/>

  <text class="title" x="70" y="58">Current simulated accounting</text>
  <text class="subtitle" x="70" y="90">Performance compensation is paid only after investor drawdowns are recovered.</text>

  <g transform="translate(110 125)">
    <rect class="card blue" x="0" y="0" width="680" height="92" rx="16"/>
    <text class="label" x="24" y="36">Quarterly fund NAV</text>
    <text class="body" x="24" y="66">Strategies produce net trading P&amp;L. Losses reduce NAV first.</text>
  </g>

  <path class="arrow" d="M450,220 L450,251"/>

  <g transform="translate(110 255)">
    <rect class="card yellow" x="0" y="0" width="680" height="92" rx="16"/>
    <text class="label" x="24" y="36">Management fee</text>
    <text class="metric" x="24" y="74">0.25%</text>
    <text class="body" x="135" y="67">charged quarterly</text>
  </g>

  <path class="arrow" d="M450,350 L450,381"/>

  <g transform="translate(110 385)">
    <rect class="card green" x="0" y="0" width="680" height="104" rx="16"/>
    <text class="label" x="24" y="36">Investor high-water mark test</text>
    <text class="body" x="24" y="66">Investor cohorts must recover prior drawdowns.</text>
    <text class="body" x="24" y="88">No performance allocation is paid below net HWM.</text>
  </g>

  <path class="arrow" d="M450,492 L450,523"/>

  <g transform="translate(155 527)">
    <rect class="card violet" x="0" y="0" width="590" height="102" rx="16"/>
    <text class="label" x="24" y="36">Performance pool</text>
    <text class="metric" x="24" y="77">20%</text>
    <text class="body" x="105" y="66">of eligible above-HWM profits</text>
    <text class="body" x="105" y="88">at annual or withdrawal crystallization</text>
  </g>

  <path class="arrow" d="M450,632 C390,684 300,704 240,728"/>
  <path class="arrow" d="M450,632 C510,684 600,704 660,728"/>

  <g transform="translate(70 735)">
    <rect class="card blue" x="0" y="0" width="340" height="104" rx="16"/>
    <text class="label" x="22" y="36">Strategy professors</text>
    <text class="metric" x="22" y="76">50%</text>
    <text class="body" x="105" y="70">of performance pool</text>
    <text class="body" x="22" y="94">Paid by strategy ownership weights</text>
  </g>

  <g transform="translate(490 735)">
    <rect class="card red" x="0" y="0" width="340" height="104" rx="16"/>
    <text class="label" x="22" y="36">Safety net</text>
    <text class="metric" x="22" y="76">50%</text>
    <text class="body" x="105" y="70">of performance pool</text>
    <text class="body" x="22" y="94">Guarantees up to $1M support</text>
  </g>

  <text class="small" x="70" y="875">Eligible profits after HWM: 80% fund/investors, 10% strategy professors, 10% safety net.</text>
</svg>
